<?xml version="1.0" encoding="utf-8"?>
<!-- Generator: Adobe Illustrator 24.2.3, SVG Export Plug-In . SVG Version: 6.00 Build 0)  -->
<svg version="1.1" id="Réteg_1" xmlns="http://www.w3.org/2000/svg" xmlns:xlink="http://www.w3.org/1999/xlink" x="0px" y="0px"
	 viewBox="0 0 141.7 141.7" style="enable-background:new 0 0 141.7 141.7;" xml:space="preserve">
<style type="text/css">
	.st0{fill:#0B1521;}
</style>
<g>
	<g>
		<path class="st0" d="M5.3,71c0-36.1,29.2-65.6,65.2-65.6c36.4,0,65.9,29.3,65.9,65.5c0,36.1-29.4,65.6-65.3,65.6
			C34.5,136.4,5.3,107.4,5.3,71z M28.1,78.9c-0.1,1.6,0.6,2.9,1.8,3.9c2.1,2.1,4.2,4.2,6.3,6.3c4.1,4,5.9,4,10.1-0.1
			c7.1-7,14.2-14,21.1-21.2c2.6-2.7,4.3-2.5,6.8,0.1c7.1,7.4,14.5,14.6,21.8,21.8c3.2,3.2,5.5,3.1,8.8,0c2.3-2.2,4.4-4.4,6.7-6.6
			c2.9-2.9,2.8-5.7-0.1-8.5c-12.1-12-24.2-24.2-36.3-36.3c-2.9-2.9-5.7-2.9-8.5,0C54.5,50.4,42.3,62.5,30.2,74.6
			C29,75.8,28,77.1,28.1,78.9z"/>
	</g>
</g>
</svg>
