<?xml version="1.0" encoding="utf-8"?>
<!-- Generator: Adobe Illustrator 24.2.3, SVG Export Plug-In . SVG Version: 6.00 Build 0)  -->
<svg version="1.1" id="Réteg_1" xmlns="http://www.w3.org/2000/svg" xmlns:xlink="http://www.w3.org/1999/xlink" x="0px" y="0px"
	 viewBox="0 0 141.7 141.7" style="enable-background:new 0 0 141.7 141.7;" xml:space="preserve">
<style type="text/css">
	.st0{fill:#0B1521;}
</style>
<path class="st0" d="M89.1,123.8c2,0.2,3.5-0.8,4.9-2.2c2.6-2.6,5.2-5.2,7.8-7.8c5-5.1,5-7.3-0.1-12.5C93,92.5,84.4,83.7,75.4,75.1
	c-3.4-3.3-3.1-5.3,0.1-8.5c9.2-8.8,18.1-17.9,27.1-27c3.9-4,3.9-6.9,0-10.9c-2.7-2.8-5.5-5.5-8.2-8.2c-3.6-3.6-7-3.5-10.6,0.1
	c-15,15-30,30-45,45c-3.5,3.5-3.6,7-0.1,10.6c15,15,30,30,45,45C85.3,122.7,86.8,124,89.1,123.8z"/>
</svg>
