<?xml version="1.0" encoding="utf-8"?>
<!-- Generator: Adobe Illustrator 24.2.3, SVG Export Plug-In . SVG Version: 6.00 Build 0)  -->
<svg version="1.1" id="Réteg_1" xmlns="http://www.w3.org/2000/svg" xmlns:xlink="http://www.w3.org/1999/xlink" x="0px" y="0px"
	 viewBox="0 0 141.7 141.7" style="enable-background:new 0 0 141.7 141.7;" xml:space="preserve">
<style type="text/css">
	.st0{fill:#0B1521;}
</style>
<path class="st0" d="M52.6,123.8c-2,0.2-3.5-0.8-4.9-2.2c-2.6-2.6-5.2-5.2-7.8-7.8c-5-5.1-5-7.3,0.1-12.5
	c8.7-8.8,17.3-17.6,26.3-26.2c3.4-3.3,3.1-5.3-0.1-8.5c-9.2-8.8-18.1-17.9-27.1-27c-3.9-4-3.9-6.9,0-10.9c2.7-2.8,5.5-5.5,8.2-8.2
	c3.6-3.6,7-3.5,10.6,0.1c15,15,30,30,45,45c3.5,3.5,3.6,7,0.1,10.6c-15,15-30,30-45,45C56.4,122.7,54.9,124,52.6,123.8z"/>
</svg>
