<?xml version="1.0" encoding="utf-8"?>
<!-- Generator: Adobe Illustrator 24.2.3, SVG Export Plug-In . SVG Version: 6.00 Build 0)  -->
<svg version="1.1" id="Layer_1" xmlns="http://www.w3.org/2000/svg" xmlns:xlink="http://www.w3.org/1999/xlink" x="0px" y="0px"
	 viewBox="0 0 170.1 170.1" style="enable-background:new 0 0 170.1 170.1;" xml:space="preserve">
<style type="text/css">
	.st0{fill:#0B1521;}
</style>
<path class="st0" d="M157.7,79.7c-15-15-30-30-45-45c-1.5-1.5-3-2.7-5.3-2.6c-2-0.2-3.5,0.8-4.9,2.2c-2.6,2.6-5.2,5.2-7.8,7.8
	c-5,5.1-5,7.3,0.1,12.5c5.2,5.3,10.4,10.6,15.7,15.8H13.7c-2.8,0-5.1,2.3-5.1,5.1v19.1c0,2.8,2.3,5.1,5.1,5.1h96.6
	c-5.5,5.5-11,11-16.4,16.5c-3.9,4-3.9,6.9,0,10.9c2.7,2.8,5.5,5.5,8.2,8.2c3.6,3.6,7,3.5,10.6-0.1c15-15,30-30,45-45
	C161.2,86.8,161.3,83.3,157.7,79.7z"/>
</svg>
