<?xml version="1.0" encoding="utf-8"?>
<!-- Generator: Adobe Illustrator 24.2.3, SVG Export Plug-In . SVG Version: 6.00 Build 0)  -->
<svg version="1.1" id="Réteg_1" xmlns="http://www.w3.org/2000/svg" xmlns:xlink="http://www.w3.org/1999/xlink" x="0px" y="0px"
	 viewBox="0 0 141.7 141.7" style="enable-background:new 0 0 141.7 141.7;" xml:space="preserve">
<style type="text/css">
	.st0{fill:#0B1521;}
</style>
<g>
	<path class="st0" d="M131,89c0-18-17.2-32.6-38.4-32.6C71.3,56.5,54.1,71,54.1,89s17.2,32.6,38.4,32.6c2.9,0,5.6-0.3,8.3-0.8
		l27.4,3.4c1.1,0.1,1.8-1.1,1.2-2l-7.7-12.1C127.5,104.5,131,97.1,131,89z M73.8,95.9c-3.8,0-6.9-3.1-6.9-6.9s3.1-6.9,6.9-6.9
		s6.9,3.1,6.9,6.9S77.6,95.9,73.8,95.9z M92.6,95.9c-3.8,0-6.9-3.1-6.9-6.9s3.1-6.9,6.9-6.9s6.9,3.1,6.9,6.9S96.3,95.9,92.6,95.9z
		 M111.3,95.9c-3.8,0-6.9-3.1-6.9-6.9s3.1-6.9,6.9-6.9s6.9,3.1,6.9,6.9S115.1,95.9,111.3,95.9z"/>
	<path class="st0" d="M52.5,79c-0.9,0.1-1.7,0.1-2.6,0.1c-3.1,0-6.1-0.4-8.9-1.2l-11.1,1.4l1.5-2.3l1.5-2.4
		c-8.2-4.8-13.6-12.9-13.6-22.1C19.3,37.9,33,26,49.9,26s30.6,11.9,30.6,26.5c0,0.9-0.1,1.8-0.2,2.6c2.8-0.7,5.7-1.2,8.7-1.4
		c0-0.4,0-0.8,0-1.2c0-19.3-17.6-35.1-39.2-35.1S10.7,33.2,10.7,52.5c0,8.7,3.6,16.7,9.5,22.9l-8.8,13.8c-0.6,1,0.2,2.2,1.3,2.1
		l31.7-4c2.1,0.3,4.2,0.4,6.4,0.3l0,0C51,84.6,51.5,81.7,52.5,79z"/>
</g>
</svg>
