<?xml version="1.0" encoding="utf-8"?>
<!-- Generator: Adobe Illustrator 24.2.3, SVG Export Plug-In . SVG Version: 6.00 Build 0)  -->
<svg version="1.1" id="Réteg_1" xmlns="http://www.w3.org/2000/svg" xmlns:xlink="http://www.w3.org/1999/xlink" x="0px" y="0px"
	 viewBox="0 0 141.7 141.7" style="enable-background:new 0 0 141.7 141.7;" xml:space="preserve">
<style type="text/css">
	.st0{fill:#0B1521;}
</style>
<g>
	<path class="st0" d="M47.3,57.4h19.9c2,0,3.6-1.6,3.6-3.6s-1.6-3.6-3.6-3.6H47.3c-2,0-3.6,1.6-3.6,3.6
		C43.7,55.8,45.3,57.4,47.3,57.4z"/>
	<path class="st0" d="M47.3,73.3h35.5c2,0,3.6-1.6,3.6-3.6s-1.6-3.6-3.6-3.6H47.3c-2,0-3.6,1.6-3.6,3.6S45.3,73.3,47.3,73.3z"/>
	<path class="st0" d="M72.6,85.6c0-2-1.6-3.6-3.6-3.6H47.3c-2,0-3.6,1.6-3.6,3.6s1.6,3.6,3.6,3.6H69C71,89.2,72.6,87.6,72.6,85.6z"
		/>
	<path class="st0" d="M50.2,109.3c0.8,1,2,1.5,3.2,1.5c0.8,0,1.7-0.3,2.5-0.8c1.9-1.3,3.3-1.9,4.5-2c0.8-0.1,1.9,0.1,3.1,1.9
		c0.5,0.7,1.5,0.9,2.2,0.4s0.9-1.4,0.4-2.2c-1.5-2.3-3.5-3.4-5.9-3.3c-1.7,0.1-3.6,0.9-6,2.5c-0.8,0.5-1.3,0.1-1.5-0.1
		c-0.5-0.7-0.5-1.9,0.7-3.1c2-2,2.9-4.5,2.2-6.5c-0.3-1-1.2-2.7-4.1-3.2C44,93,41.4,105.7,41.1,107.1c-0.2,0.8,0.4,1.7,1.2,1.8
		c0.8,0.2,1.7-0.4,1.8-1.2c0.5-2.9,3-10.9,6.8-10.2c0.7,0.1,1.5,0.4,1.7,1.1s-0.1,1.9-1.5,3.3C48.5,104.6,48.8,107.6,50.2,109.3z"/>
	<path class="st0" d="M133,60.1c-0.8-0.8-2.1-0.8-2.9,0l-2.2,2.2l-2.9-3l2.2-2.2c2.7-2.7,2.7-7,0-9.7c-2.7-2.7-7-2.7-9.7-0.1
		L89.3,74.9c-0.7,0.7-0.7,1.8,0,2.5l7.5,7.5c0.7,0.7,1.8,0.7,2.5,0L121.2,63l2.9,3l-14.3,14.3c-0.8,0.8-0.8,2.1,0,2.9
		c0.4,0.4,0.9,0.6,1.5,0.6s1.1-0.2,1.5-0.6L133,63C133.8,62.2,133.8,60.9,133,60.1z"/>
	<path class="st0" d="M68,107.1c2-0.2,5.9-0.4,14.3-6.6c6.9-5.1,12.2-10.9,12.2-10.9c0.6-0.5,0.6-1.5,0.1-2l-7.8-7.8
		c-0.5-0.5-1.4-0.5-2,0c-1.7,1.7-5.6,5.7-11.3,12.5c-5.6,6.7-6.6,11.5-6.8,13.7C66.7,106.7,67.3,107.1,68,107.1z"/>
	<path class="st0" d="M102.9,87.1c-2,0-3.6,1.6-3.6,3.6v27.4H33.4V23.6h46.2l0.9,0.9v16.6c0,1.4,1.2,2.6,2.6,2.6h16.6l0.2,0.2v8.3
		c0,2,1.6,3.6,3.6,3.6s3.6-1.6,3.6-3.6v-9.8c0-1-0.4-1.9-1.1-2.6L83.7,17.4c-0.7-0.7-1.6-1.1-2.6-1.1H29.8c-2,0-3.6,1.6-3.6,3.6
		v101.8c0,2,1.6,3.6,3.6,3.6h73.1c2,0,3.6-1.6,3.6-3.6v-31C106.5,88.7,104.9,87.1,102.9,87.1z"/>
</g>
</svg>
