<?xml version="1.0" encoding="utf-8"?>
<!-- Generator: Adobe Illustrator 24.2.3, SVG Export Plug-In . SVG Version: 6.00 Build 0)  -->
<svg version="1.1" id="Réteg_1" xmlns="http://www.w3.org/2000/svg" xmlns:xlink="http://www.w3.org/1999/xlink" x="0px" y="0px"
	 viewBox="0 0 141.7 141.7" style="enable-background:new 0 0 141.7 141.7;" xml:space="preserve">
<style type="text/css">
	.st0{fill:#0B1521;}
</style>
<path class="st0" d="M70.9,5.3C34.7,5.3,5.3,34.7,5.3,70.9s29.4,65.6,65.6,65.6s65.6-29.4,65.6-65.6S107.1,5.3,70.9,5.3z M87.7,60.9
	c-0.4,2.8-0.7,5.7-1.1,8.5c-0.1,0.4-0.1,0.8-0.2,1.3c-0.4,0.1-0.8,0.1-1.2,0.1c-2.7,0-5.3,0-8,0c-0.9,0-1,0-1,0.9
	c0,10.3,0,20.6,0,31c0,1.5,0.2,1.4-1.4,1.4c-4.2,0-8.4,0-12.7,0c-1,0-1,0-1-1c0-10.3,0-20.5,0-30.8c0-1.6,0.1-1.4-1.4-1.4
	c-1.7,0-3.5,0-5.2,0c-0.6,0-0.7-0.2-0.7-0.7c0-3.2,0-6.4,0-9.6c0-0.6,0.3-0.7,0.8-0.7c1.5,0,3.1,0,4.6,0c0.1,0,0.3,0,0.4,0
	c1.4,0,1.6-0.2,1.6-1.6c0-2.5,0-5,0-7.5c0-1.8,0.1-3.6,0.8-5.3c1.6-3.8,4.5-6.1,8.5-7c1-0.2,2-0.3,3-0.3c4.4-0.2,8.8-0.3,13.2-0.3
	c1,0,1,0,1,1c0,3.2,0,6.4,0,9.6c0,0.9,0,1-1,1c-2.1,0-4.2,0-6.3,0c-0.5,0-1,0-1.4,0.1c-1.7,0.4-2.7,1.5-2.7,3.2
	c-0.1,2.1,0,4.3,0,6.4c0,0.6,0.4,0.7,0.8,0.7c3.2,0,6.3,0,9.5,0C87.9,59.6,87.9,59.6,87.7,60.9z"/>
</svg>
