<?xml version="1.0" encoding="utf-8"?>
<!-- Generator: Adobe Illustrator 24.2.3, SVG Export Plug-In . SVG Version: 6.00 Build 0)  -->
<svg version="1.1" id="Réteg_1" xmlns="http://www.w3.org/2000/svg" xmlns:xlink="http://www.w3.org/1999/xlink" x="0px" y="0px"
	 viewBox="0 0 141.7 141.7" style="enable-background:new 0 0 141.7 141.7;" xml:space="preserve">
<style type="text/css">
	.st0{fill:#0B1521;}
</style>
<g>
	<path class="st0" d="M35,106.8c-0.3-0.8-1.3-1.2-2.2-0.9l-4.2,1.7c-0.8,0.3-1.2,1.3-0.9,2.2l8.2,19.8c0.3,0.8,1.3,1.2,2.2,0.9
		l4.2-1.7c0.8-0.3,1.2-1.3,0.9-2.2L35,106.8z"/>
	<path class="st0" d="M103.7,108.5l-13.6,5.6l-1.4,0.6c-3,1.3-6.4,1.6-9.6,1.1l-9.2-1.6c-1.1-0.2-1.8-1.2-1.6-2.3
		c0.1-0.5,0.4-1,0.8-1.3s0.9-0.4,1.5-0.3l4.7,0.8l0,0l7.5,1.3c1.3,0.2,2.6-0.1,3.6-0.8s1.7-1.8,2-3.1c0.4-2.6-1.3-5.1-4-5.6l-22.3-4
		c-1.4-0.3-2.9-0.1-4.3,0.4l-18.6,6.6c-0.7,0.2-1,1-0.7,1.6l7,16.9c0.3,0.6,1,0.9,1.6,0.7l2.7-1.1c1.7-0.7,3.5-0.7,5.2,0l9.5,3.7
		l6.7,2.5c2.5,0.9,5.2,0.9,7.6-0.2l28.7-12.4c1.6-0.7,2.7-2.1,2.9-3.7c0.1-0.9,0.1-1.8-0.3-2.7C109,108.7,106.2,107.5,103.7,108.5z"
		/>
	<path class="st0" d="M113.1,40.8H98.3c3.7-2.2,6.6-5.4,8.1-9c1.7-4,1.7-8.3-0.2-12.4c-1.6-3.5-4.5-6.2-8.3-7.5
		c-4-1.4-8.4-1.1-12.2,0.7c-6.5,3.3-10.8,9.4-14.2,15.8c-1-1.8-2-3.6-3.1-5.3c-3.2-4.8-9.8-10.7-17.5-11.6
		c-4.6-0.5-8.8,0.9-12.2,4.2c-5.3,5.1-6.2,13.7-1.9,19.2c2.1,2.7,4.8,4.5,7.9,5.8H28.6c-3.4,0-6.2,2.8-6.2,6.2v11.7
		c0,3.4,2.8,6.2,6.2,6.2h1.3l1.6,24.3c0.2,3.1,3,5.4,6.6,5.4h65.6c3.6,0,6.4-2.3,6.6-5.4l1.6-24.3h1.3c3.4,0,6.2-2.8,6.2-6.2V46.9
		C119.3,43.5,116.5,40.8,113.1,40.8z M76.2,36.9c3.3-6.7,7.2-14.1,13.2-17.1c1.8-0.9,4-1,5.9-0.3c1.7,0.6,3,1.8,3.7,3.3
		c0.9,2,1,4,0.1,5.9c-1.2,2.9-4.4,5.5-8,6.8c-4.6,1.6-9.6,2.1-15.1,2.1h-0.1C76,37.3,76.1,37.1,76.2,36.9z M43.1,30
		c-2-2.5-1-6.5,1.1-8.5c1.4-1.4,3-2,4.9-2c0.3,0,0.6,0,0.9,0c4.5,0.5,9.3,4.4,11.8,8.1c2,3,3.7,6.2,5,9.6c-3.5-0.2-6.9-0.6-10.1-1.3
		C51.4,34.9,45.8,33.5,43.1,30z M28.9,47.3h34.4v11H28.9V47.3z M37.9,87.9l-1.5-23h26.9v23H38.1C38,87.9,38,87.9,37.9,87.9z
		 M103.8,87.9c0,0-0.1,0-0.2,0H78.3v-23h26.9L103.8,87.9z M112.8,58.3H78.3v-11h34.4L112.8,58.3L112.8,58.3z"/>
</g>
</svg>
