<?xml version="1.0" encoding="utf-8"?>
<!-- Generator: Adobe Illustrator 24.2.3, SVG Export Plug-In . SVG Version: 6.00 Build 0)  -->
<svg version="1.1" id="Réteg_1" xmlns="http://www.w3.org/2000/svg" xmlns:xlink="http://www.w3.org/1999/xlink" x="0px" y="0px"
	 viewBox="0 0 141.7 141.7" style="enable-background:new 0 0 141.7 141.7;" xml:space="preserve">
<style type="text/css">
	.st0{fill:#0B1521;}
</style>
<g>
	<path class="st0" d="M98.1,121.4H93c0,0,5.8-29.2,7.1-34.1c1.2-5,0-6.8,0-6.8L76.4,44.2c-0.6-1-2.3-0.5-2.3,0.6v47.1
		c0,2,1,3.7,2.6,4.9c2.3,1.8,3.9,4.5,3.9,7.6c0,4.2-2.7,7.7-6.3,8.9c0,0-2.2,0.5-3,0.5c-0.7,0-3.3-0.5-3.3-0.5
		c-3.7-1.4-6.3-4.9-6.3-8.9c0-3.1,1.5-5.8,3.9-7.6c1.6-1.1,2.6-2.9,2.6-4.9V44.8c0-1.2-1.6-1.7-2.3-0.6L41.7,80.5c0,0-1.2,1.8,0,6.8
		s7.1,34.1,7.1,34.1h-5.1c-1.2,0-2.5,0.7-2.9,2c-0.6,2,0.8,3.9,2.8,3.9h54.6c1.9,0,3.4-1.9,2.8-3.9
		C100.6,122.1,99.4,121.4,98.1,121.4z"/>
	<ellipse transform="matrix(0.7071 -0.7071 0.7071 0.7071 -53.0113 80.7585)" class="st0" cx="71" cy="104.4" rx="5.8" ry="5.6"/>
	<path class="st0" d="M116.8,39.2c-5.7-5.7-12.7-10.3-20.4-13.4h24.2c0.8,1.7,2.6,2.9,4.7,2.9c2.9,0,5.2-2.3,5.2-5.2
		s-2.3-5.2-5.2-5.2c-2,0-3.7,1.1-4.6,2.8H79.8V19c0-2.5-2.1-4.5-4.5-4.5h-8.8C64,14.5,62,16.6,62,19v2.1H20.5
		c-0.9-1.7-2.6-2.8-4.6-2.8c-2.9,0-5.2,2.3-5.2,5.2s2.3,5.2,5.2,5.2c2,0,3.8-1.2,4.7-2.9h24.1C23.3,34.5,9.3,54.1,9,78.5
		c0,1.4,1,2.4,2.4,2.4c1.2,0,2.3-1,2.3-2.5C14.1,50.4,34,29.5,62,25.9v2c0,2.4,2.1,4.4,4.5,4.4h8.8c2.5,0,4.5-2.1,4.5-4.5V26
		c13,1.8,25,7.6,33.7,16.4c9.6,9.7,14.6,22.1,14.5,35.8c-0.1,1.4,1,2.4,2.3,2.4c1.4,0,2.4-1.1,2.4-2.4
		C132.8,63.2,127.2,49.7,116.8,39.2z"/>
</g>
</svg>
