<?xml version="1.0" encoding="utf-8"?>
<!-- Generator: Adobe Illustrator 24.2.3, SVG Export Plug-In . SVG Version: 6.00 Build 0)  -->
<svg version="1.1" id="Réteg_1" xmlns="http://www.w3.org/2000/svg" xmlns:xlink="http://www.w3.org/1999/xlink" x="0px" y="0px"
	 viewBox="0 0 141.7 141.7" style="enable-background:new 0 0 141.7 141.7;" xml:space="preserve">
<style type="text/css">
	.st0{fill:#0B1521;}
</style>
<path class="st0" d="M70.8,5.3C34.6,5.3,5.3,34.6,5.3,70.9s29.3,65.6,65.6,65.6s65.6-29.4,65.6-65.6S107.1,5.3,70.8,5.3z M48.3,38.1
	c3.4,0,6.1,2.8,6.1,6.1c0,3.4-2.8,6.1-6.1,6.1s-6.1-2.8-6.1-6.1C42.2,40.8,44.9,38.1,48.3,38.1z M54.5,95.4H42.2V54.5h12.3V95.4z
	 M103.7,95.4H91.4V73.1c0-4.6-1.3-9.2-6.7-9.2S75,68.5,75,73.2v22.2H62.7V54.3H75V60c3.8-4.8,9.1-7,15.1-7s13.6,3,13.6,19.1V95.4z"
	/>
</svg>
