<?xml version="1.0" encoding="utf-8"?>
<!-- Generator: Adobe Illustrator 24.2.3, SVG Export Plug-In . SVG Version: 6.00 Build 0)  -->
<svg version="1.1" id="Layer_1" xmlns="http://www.w3.org/2000/svg" xmlns:xlink="http://www.w3.org/1999/xlink" x="0px" y="0px"
	 viewBox="0 0 511.8 473" style="enable-background:new 0 0 511.8 473;" xml:space="preserve">
<style type="text/css">
	.st0{fill:#0DAFCC;}
	.st1{fill:#0B1521;}
</style>
<g>
	<g>
		<path class="st0" d="M136.2,441.9h-4.5c-0.4,0-0.7,0.1-0.9,0.3c-0.2,0.2-0.3,0.5-0.3,0.9v8.6c-0.3,0.2-0.7,0.4-1.1,0.6
			s-1,0.4-1.6,0.5c-0.6,0.2-1.2,0.3-1.9,0.4c-0.7,0.1-1.3,0.2-2,0.2c-1.8,0-3.5-0.4-5.1-1.1s-3-1.7-4.2-2.9
			c-1.2-1.2-2.2-2.6-2.9-4.3c-0.7-1.6-1.1-3.4-1.1-5.3c0-1.8,0.3-3.5,1-5.2c0.7-1.6,1.6-3.1,2.8-4.3c1.2-1.2,2.6-2.2,4.2-3
			c1.6-0.7,3.4-1.1,5.4-1.1c1.5,0,3,0.2,4.4,0.7c1.4,0.5,2.8,1.1,3.9,1.9c0.2,0.1,0.3,0.2,0.5,0.3c0.2,0,0.3,0.1,0.4,0.1
			c0.1,0,0.3-0.1,0.5-0.3s0.5-0.5,0.8-0.9c0.3-0.3,0.6-0.7,0.9-1.2c0.3-0.4,0.6-0.8,0.8-1.3c0.2-0.4,0.5-0.8,0.6-1.1
			c0.2-0.3,0.2-0.6,0.2-0.7c0-0.3-0.2-0.7-0.6-1c-0.4-0.3-0.9-0.7-1.4-1c-0.6-0.3-1.2-0.6-1.8-0.9c-0.6-0.3-1.2-0.5-1.6-0.7
			c-1.2-0.5-2.5-0.8-3.8-1c-1.3-0.2-2.6-0.3-3.9-0.3c-1.9,0-3.8,0.3-5.6,0.8c-1.8,0.5-3.5,1.2-5,2.1c-1.6,0.9-3,2-4.2,3.3
			c-1.3,1.3-2.4,2.7-3.3,4.3c-0.9,1.6-1.6,3.2-2.1,5c-0.5,1.8-0.7,3.6-0.7,5.6c0,1.9,0.2,3.8,0.7,5.6c0.5,1.8,1.2,3.5,2.1,5
			c0.9,1.5,2,3,3.3,4.2c1.3,1.3,2.7,2.4,4.2,3.3c1.5,0.9,3.2,1.6,5,2.1c1.8,0.5,3.7,0.7,5.6,0.7c1.1,0,2.3-0.1,3.4-0.3
			c1.1-0.2,2.2-0.4,3.3-0.7c1.1-0.3,2.1-0.7,3.1-1.2c1-0.5,1.9-1,2.8-1.6c0,0,0,0,0,0c0,0,0,0,0,0c0.3-0.2,0.5-0.4,0.6-0.6
			c0.1-0.2,0.2-0.4,0.2-0.6v-12.6c0-0.4-0.1-0.7-0.4-0.9C136.8,442,136.5,441.9,136.2,441.9z"/>
		<path class="st0" d="M185.1,458.2l-7.2-14.1c1-0.6,2-1.2,2.9-2c0.9-0.8,1.6-1.7,2.2-2.7c0.6-1,1.1-2.1,1.5-3.2
			c0.3-1.2,0.5-2.4,0.5-3.6c0-1.8-0.3-3.5-1-5.1c-0.7-1.6-1.6-3-2.8-4.2c-1.2-1.2-2.6-2.1-4.2-2.8c-1.6-0.7-3.3-1-5.2-1h-16.8
			c-0.8,0-1.2,0.4-1.2,1.3V459c0,0.4,0.1,0.7,0.3,0.9s0.5,0.3,0.9,0.3h5.5c0.8,0,1.3-0.4,1.3-1.2v-13c1.5,0,2.8,0,3.7,0
			c1,0,1.7,0,2.3,0c0.6,0,1.1,0,1.4,0c0.3,0,0.7,0,0.9,0l6.7,13.2c0.2,0.7,0.7,1,1.3,1h6.4c0.6,0,1-0.3,1-0.8c0-0.2,0-0.4-0.1-0.6
			C185.2,458.6,185.2,458.4,185.1,458.2z M176.5,435c-0.3,0.7-0.7,1.4-1.2,2c-0.5,0.6-1.1,1-1.9,1.4c-0.7,0.3-1.5,0.5-2.4,0.6
			c-0.4,0-0.7,0.1-1,0.1c-0.3,0-0.7,0-1,0h-7.3v-12.8h5.4c0.7,0,1.3,0,1.9,0c0.6,0,1.2,0,1.9,0c0.9,0.1,1.7,0.3,2.4,0.6
			c0.7,0.4,1.4,0.8,1.9,1.4c0.5,0.6,0.9,1.2,1.2,2c0.3,0.7,0.4,1.5,0.4,2.3C176.9,433.4,176.7,434.2,176.5,435z"/>
		<path class="st0" d="M235.8,458.7l-14.5-36.3l-0.9-2.1c-0.1-0.2-0.2-0.4-0.4-0.6c-0.2-0.2-0.5-0.3-0.9-0.3h-4.4
			c-0.4,0-0.8,0.1-1,0.4c-0.2,0.2-0.4,0.5-0.5,0.7l-14.8,36.9c-0.1,0.3-0.2,0.5-0.3,0.9c-0.1,0.3-0.2,0.7-0.3,1c0,0.1,0,0.1,0,0.2
			c0,0.3,0.1,0.4,0.3,0.6s0.5,0.2,0.8,0.2h5.5c0.7,0,1.2-0.3,1.4-1c0.3-0.8,0.7-1.8,1.1-3c0.4-1.1,0.9-2.3,1.4-3.6h17
			c0.3,0.9,0.7,1.8,1,2.7c0.3,0.9,0.7,1.8,1,2.6l0.5,1.3c0.1,0.3,0.3,0.6,0.5,0.8s0.5,0.2,0.9,0.2h5.4c0.8,0,1.2-0.3,1.2-0.8
			c0-0.1,0-0.2,0-0.3S235.8,458.8,235.8,458.7z M210.8,445.5c1-2.5,2-5.1,3-7.8c1-2.7,2-5.3,3-7.9l5.8,15.7H210.8z"/>
		<path class="st0" d="M274.8,423.3c-1.1-1.2-2.5-2.2-4-2.9s-3.3-1.1-5.1-1.1h-15.6c-0.8,0-1.2,0.4-1.2,1.3V459
			c0,0.8,0.4,1.2,1.2,1.2h5.5c0.8,0,1.2-0.4,1.2-1.2v-13.7h9.1c1.8,0,3.5-0.4,5.1-1.1c1.5-0.7,2.9-1.7,4-2.9c1.1-1.2,2-2.6,2.6-4.1
			c0.6-1.5,0.9-3.2,0.9-4.8c0-1.7-0.3-3.3-0.9-4.9C276.8,425.9,276,424.5,274.8,423.3z M269.9,434.6c-0.3,0.7-0.7,1.4-1.2,1.9
			c-0.5,0.6-1.1,1-1.9,1.3c-0.7,0.3-1.5,0.5-2.3,0.5h-7.7v-12.1h7.7c0.8,0,1.6,0.2,2.3,0.5c0.7,0.3,1.3,0.8,1.8,1.4
			c0.5,0.6,0.9,1.2,1.2,1.9c0.3,0.7,0.4,1.5,0.4,2.2C270.4,433.2,270.2,433.9,269.9,434.6z"/>
		<path class="st0" d="M325.1,419.3h-5.4c-0.4,0-0.7,0.1-0.9,0.4c-0.2,0.2-0.3,0.5-0.3,0.9v14.2h-18.5v-14.2c0-0.3-0.1-0.6-0.4-0.9
			c-0.3-0.2-0.6-0.4-0.9-0.4h-5.5c-0.4,0-0.7,0.1-0.9,0.4c-0.2,0.2-0.3,0.5-0.3,0.8V459c0,0.8,0.4,1.1,1.2,1.1h5.4
			c0.9,0,1.3-0.4,1.3-1.2v-16.6h18.5V459c0,0.8,0.4,1.2,1.2,1.2h5.5c0.9,0,1.3-0.4,1.3-1.2v-38.4c0-0.4-0.1-0.7-0.4-0.9
			C325.8,419.4,325.5,419.3,325.1,419.3z"/>
		<path class="st0" d="M350.2,419.3h-5.5c-0.4,0-0.7,0.1-0.9,0.4c-0.2,0.2-0.3,0.5-0.3,0.9V459c0,0.8,0.4,1.2,1.2,1.2h5.5
			c0.9,0,1.3-0.4,1.3-1.2v-38.4c0-0.4-0.1-0.7-0.4-0.9C350.8,419.4,350.5,419.3,350.2,419.3z"/>
		<path class="st0" d="M399.9,455.4l-2.7-4.6c-0.3-0.4-0.7-0.6-1-0.6c-0.1,0-0.2,0-0.4,0.1c-0.2,0-0.3,0.1-0.5,0.2
			c-1.1,0.8-2.4,1.5-3.7,1.9c-1.3,0.5-2.8,0.7-4.2,0.7c-1.9,0-3.6-0.3-5.1-1c-1.6-0.7-2.9-1.6-4-2.9c-1.1-1.2-2-2.6-2.7-4.2
			c-0.6-1.6-0.9-3.4-0.9-5.2c0-1.9,0.3-3.6,0.9-5.3s1.5-3.1,2.7-4.3c1.1-1.2,2.5-2.2,4-2.9c1.6-0.7,3.3-1.1,5.1-1.1
			c1.5,0,2.9,0.2,4.2,0.7c1.3,0.5,2.6,1.1,3.7,1.9c0.1,0.1,0.3,0.2,0.4,0.2c0.1,0,0.3,0.1,0.4,0.1c0.3,0,0.7-0.2,1-0.6l2.7-4.5
			c0.1-0.2,0.2-0.4,0.2-0.6c0-0.3-0.1-0.5-0.2-0.7c-0.1-0.2-0.3-0.3-0.5-0.5c-1.7-1.2-3.6-2-5.5-2.7s-4-0.9-6.2-0.9
			c-1.9,0-3.8,0.3-5.6,0.8c-1.8,0.5-3.5,1.2-5,2.1c-1.6,0.9-3,2-4.2,3.3c-1.3,1.3-2.4,2.7-3.3,4.3c-0.9,1.6-1.6,3.2-2.1,5
			c-0.5,1.8-0.7,3.7-0.7,5.6c0,1.9,0.2,3.8,0.7,5.6c0.5,1.8,1.2,3.5,2.1,5c0.9,1.5,2,3,3.3,4.2c1.3,1.3,2.7,2.4,4.2,3.3
			c1.6,0.9,3.2,1.6,5,2.1c1.8,0.5,3.7,0.7,5.6,0.7c2.2,0,4.3-0.3,6.3-0.9s3.8-1.5,5.6-2.7c0.2-0.1,0.4-0.3,0.5-0.5
			c0.2-0.2,0.2-0.4,0.2-0.6C400,455.9,400,455.7,399.9,455.4z"/>
		<path class="st0" d="M216.2,59.6h79.3c0.6,0,1.2-0.4,1.5-0.9c0.3-0.6,0.2-1.3-0.3-1.7l-39.7-44.2c-0.6-0.7-1.8-0.7-2.4,0L215,56.9
			c-0.4,0.5-0.5,1.1-0.3,1.7C215,59.2,215.6,59.6,216.2,59.6z"/>
	</g>
	<g>
		<path class="st1" d="M148.6,203h68h10.7h57.3h10.7h26.8c1.2,0,2.1-1,2.1-2.1v-10.7c0-0.2,0-0.3-0.1-0.5v-17.3c0-1.2-1-2.1-2.1-2.1
			h-10.7c-1.2,0-2.1,1-2.1,2.1v15.7h-11.8v-38.5c0-14.6,11.9-26.5,26.5-26.5c14.6,0,26.5,11.9,26.5,26.5v38.5H339
			c-1.2,0-2.1,1-2.1,2.1v10.7c0,1.2,1,2.1,2.1,2.1h24.2c1.2,0,2.1-1,2.1-2.1v-51.3c0-22.9-18.6-41.5-41.5-41.5
			c-22.9,0-41.5,18.6-41.5,41.5v38.5h-53v-38.5c0-14.6,11.9-26.5,26.5-26.5c6.1,0,12,2.1,16.7,6c0.6,0.5,1.5,0.6,2.3,0.3
			c0.7-0.4,1.2-1.1,1.2-1.9v-12.7c0-0.8-0.4-1.5-1.2-1.9c-5.9-3.1-12.4-4.7-19.1-4.7c-14,0-26.5,7-34,17.8
			c-7.5-10.7-19.9-17.8-34-17.8c-22.9,0-41.5,18.6-41.5,41.5v51.3C146.5,202.1,147.4,203,148.6,203z M161.4,149.6
			c0-14.6,11.9-26.5,26.5-26.5c14.6,0,26.5,11.9,26.5,26.5v38.5h-53V149.6z"/>
		<path class="st1" d="M148.6,227.7h214.5c1.2,0,2.1-1,2.1-2.1v-10.7c0-1.2-1-2.1-2.1-2.1H148.6c-1.2,0-2.1,1-2.1,2.1v10.7
			C146.5,226.8,147.4,227.7,148.6,227.7z"/>
		<path class="st1" d="M65.3,281.1H22.5c-5.8,0-10.5,4.7-10.5,10.5V355c0,0,0,0.1,0,0.1c0,0,0,0.1,0,0.1v27.3
			c0,5.8,4.7,10.5,10.5,10.5S33,388.3,33,382.5v-16.8h39.2c7.2,0,12.4,7.1,12.4,16.9c0,5.8,4.7,10.5,10.5,10.5s10.5-4.7,10.5-10.5
			c0-12-4.4-22.3-11.6-29.2c7.2-7.3,11.6-17.2,11.6-28.2v-3.8C105.6,299.2,87.5,281.1,65.3,281.1z M33,302.1h32.2
			c10.6,0,19.3,8.7,19.3,19.3v3.8c0,10.7-8.7,19.3-19.3,19.3H33V302.1z"/>
		<path class="st1" d="M295.7,281.1c-5.8,0-10.5,4.7-10.5,10.5V319c0,14.2-11.6,25.8-25.8,25.8s-25.8-11.6-25.8-25.8v-27.4
			c0-5.8-4.7-10.5-10.5-10.5s-10.5,4.7-10.5,10.5V319c0,22.2,15.5,40.8,36.3,45.6v18c0,5.8,4.7,10.5,10.5,10.5s10.5-4.7,10.5-10.5
			v-18c20.7-4.8,36.3-23.4,36.3-45.6v-27.4C306.2,285.8,301.5,281.1,295.7,281.1z"/>
		<path class="st1" d="M361,281.1c-25.8,0-46.8,21-46.8,46.8v26.3c0,0.2,0,0.3,0,0.5c0,0.2,0,0.3,0,0.5v27.3
			c0,5.8,4.7,10.5,10.5,10.5s10.5-4.7,10.5-10.5v-16.8h51.5v16.8c0,5.8,4.7,10.5,10.5,10.5s10.5-4.7,10.5-10.5v-27.3
			c0-0.2,0-0.3,0-0.5c0-0.2,0-0.3,0-0.5v-26.3C407.8,302.1,386.8,281.1,361,281.1z M335.3,344.7v-16.8c0-14.2,11.6-25.8,25.8-25.8
			s25.8,11.6,25.8,25.8v16.8H335.3z"/>
		<path class="st1" d="M489.2,372h-51v-34.7v-0.5v-45.2c0-5.8-4.7-10.5-10.5-10.5s-10.5,4.7-10.5,10.5v45.2v0.5v45.2
			c0,5.8,4.7,10.5,10.5,10.5h61.5c5.8,0,10.5-4.7,10.5-10.5S495,372,489.2,372z"/>
		<path class="st1" d="M158.3,281.1c-25.8,0-46.8,21-46.8,46.8v18.4c0,25.8,21,46.8,46.8,46.8s46.8-21,46.8-46.8v-18.4
			C205.1,302.1,184.1,281.1,158.3,281.1z M184.1,346.2c0,14.2-11.6,25.8-25.8,25.8s-25.8-11.6-25.8-25.8v-18.4
			c0-14.2,11.6-25.8,25.8-25.8s25.8,11.6,25.8,25.8V346.2z"/>
	</g>
</g>
</svg>
