<?xml version="1.0" encoding="utf-8"?>
<!-- Generator: Adobe Illustrator 24.2.3, SVG Export Plug-In . SVG Version: 6.00 Build 0)  -->
<svg version="1.1" id="Layer_1" xmlns="http://www.w3.org/2000/svg" xmlns:xlink="http://www.w3.org/1999/xlink" x="0px" y="0px"
	 viewBox="0 0 1765.8 240" style="enable-background:new 0 0 1765.8 240;" xml:space="preserve">
<style type="text/css">
	.st0{fill:#0B1521;}
	.st1{fill:#09AECB;}
</style>
<g>
	<path class="st0" d="M345.2,67.8h-54.8c-7.4,0-13.5,6-13.5,13.5v81.4c0,0,0,0.1,0,0.1c0,0,0,0.1,0,0.1v35.1c0,7.4,6,13.5,13.5,13.5
		s13.5-6,13.5-13.5v-21.6h50.3c9.2,0,15.9,9.1,15.9,21.7c0,7.4,6,13.5,13.5,13.5c7.4,0,13.5-6,13.5-13.5c0-15.4-5.7-28.6-14.9-37.4
		c9.2-9.3,14.9-22.1,14.9-36.2v-4.9C396.9,91,373.7,67.8,345.2,67.8z M370,124.4c0,13.7-11.1,24.8-24.8,24.8h-41.4V94.7h41.4
		c13.7,0,24.8,11.1,24.8,24.8V124.4z"/>
	<path class="st0" d="M640.8,67.8c-7.4,0-13.5,6-13.5,13.5v35.1c0,18.2-14.8,33.1-33.1,33.1s-33.1-14.8-33.1-33.1V81.2
		c0-7.4-6-13.5-13.5-13.5s-13.5,6-13.5,13.5v35.1c0,28.5,19.9,52.3,46.5,58.5v23.1c0,7.4,6,13.5,13.5,13.5c7.4,0,13.5-6,13.5-13.5
		v-23.1c26.6-6.1,46.5-30,46.5-58.5V81.2C654.3,73.8,648.2,67.8,640.8,67.8z"/>
	<path class="st0" d="M724.7,67.8c-33.1,0-60,26.9-60,60v33.8c0,0.2,0,0.4,0,0.7c0,0.2,0,0.4,0,0.7v35.1c0,7.4,6,13.5,13.5,13.5
		c7.4,0,13.5-6,13.5-13.5v-21.6h66.1v21.6c0,7.4,6,13.5,13.5,13.5c7.4,0,13.5-6,13.5-13.5v-35.1c0-0.2,0-0.4,0-0.7
		c0-0.2,0-0.4,0-0.7v-33.8C784.7,94.7,757.8,67.8,724.7,67.8z M757.7,149.4h-66.1v-21.6c0-18.2,14.8-33.1,33.1-33.1
		s33.1,14.8,33.1,33.1V149.4z"/>
	<path class="st0" d="M889.2,184.4h-65.5v-44.5v-0.6v-58c0-7.4-6-13.5-13.5-13.5c-7.4,0-13.5,6-13.5,13.5v58v0.6v58
		c0,7.4,6,13.5,13.5,13.5h79c7.4,0,13.5-6,13.5-13.5C902.6,190.5,896.6,184.4,889.2,184.4z"/>
	<path class="st0" d="M464.5,67.8c-33.1,0-60,26.9-60,60v23.6c0,33.1,26.9,60,60,60c33.1,0,60-26.9,60-60v-23.6
		C524.5,94.7,497.6,67.8,464.5,67.8z M497.6,151.4c0,18.2-14.8,33.1-33.1,33.1s-33.1-14.8-33.1-33.1v-23.6
		c0-18.2,14.8-33.1,33.1-33.1s33.1,14.8,33.1,33.1V151.4z"/>
	<path class="st1" d="M1053.6,147.7h-3.9c-2.3,0-3.4,1.2-3.4,3.5v37.5c-4.3,3.2-9.5,6-15.5,8.2c-6,2.2-12.6,3.3-19.7,3.3
		c-5.5,0-10.8-0.7-15.8-2.1c-5.1-1.4-9.9-3.5-14.3-6.1c-4.5-2.6-8.6-5.7-12.2-9.4c-3.7-3.6-6.8-7.7-9.4-12.1
		c-2.6-4.5-4.7-9.2-6.1-14.4c-1.5-5.1-2.2-10.5-2.2-16c0-5.4,0.7-10.6,2.1-15.6c1.4-5.1,3.4-9.9,5.9-14.3c2.6-4.5,5.7-8.6,9.3-12.3
		c3.6-3.7,7.7-6.9,12.1-9.5c4.5-2.6,9.3-4.7,14.5-6.2c5.2-1.5,10.6-2.2,16.3-2.2c6.5,0,12.8,1.1,18.8,3.2c6,2.1,11.7,5.1,17.1,9.1
		c1.5,1.1,2.8,1.7,3.7,1.7c0.5,0,0.9-0.2,1.3-0.5c0.4-0.3,0.8-0.7,1.2-1.2l2.5-3.2c0.5-0.6,0.7-1.3,0.7-2c0-0.9-0.7-1.9-2-3
		c-1.3-1.2-3-2.3-4.9-3.5c-1.9-1.2-3.9-2.3-6-3.4c-2.1-1.1-3.9-1.9-5.4-2.6c-8.7-3.7-17.8-5.6-27.4-5.6c-6.5,0-12.8,0.9-18.9,2.6
		c-6.1,1.7-11.7,4.1-17,7.2c-5.3,3.1-10,6.8-14.3,11.2c-4.3,4.3-8,9.1-11.1,14.4c-3.1,5.3-5.5,10.9-7.1,17
		c-1.7,6.1-2.5,12.3-2.5,18.8c0,6.5,0.8,12.8,2.5,18.9s4,11.7,7.1,17c3,5.3,6.7,10,11.1,14.3s9.1,8,14.3,11.1
		c5.2,3.1,10.9,5.5,16.9,7.1c6.1,1.7,12.4,2.5,18.9,2.5c8.4,0,16.2-1.3,23.5-4s14-6.2,20.2-10.6c0.7-0.6,1.3-1.1,1.7-1.6
		c0.4-0.5,0.6-1.1,0.6-1.8v-41.5c0-1.1-0.3-2-0.9-2.6C1055.5,148,1054.7,147.7,1053.6,147.7z"/>
	<path class="st1" d="M1175.6,137.9c2.3-3.4,4-7.2,5.3-11.2c1.2-4,1.9-8.3,1.9-12.7c0-6-1.1-11.6-3.4-16.8
		c-2.2-5.3-5.3-9.9-9.2-13.8c-3.9-4-8.5-7.1-13.7-9.4c-5.3-2.3-10.9-3.5-16.9-3.5h-53.8c-1,0-1.7,0.2-2.1,0.7
		c-0.4,0.5-0.8,1.3-1.2,2.4v132.3c0,2.2,1.1,3.4,3.4,3.4h4c2.2,0,3.4-1.1,3.4-3.4v-48.3h45.5c1.6,0,3.1-0.1,4.3-0.2
		c1.3-0.2,2.5-0.4,3.8-0.7l23,50.9c0.5,1.2,1.3,1.8,2.4,1.8c2.2,0,3.9,0,5,0c1.2,0,2.1-0.1,2.6-0.3c0.6-0.2,0.9-0.4,1-0.7
		c0.1-0.3,0.2-0.8,0.2-1.4c0-0.4-0.2-0.9-0.5-1.7l-23.4-51.3c3.8-1.7,7.3-3.9,10.4-6.6C1170.6,144.3,1173.3,141.3,1175.6,137.9z
		 M1158.7,140.5c-2.7,2-5.7,3.6-9,4.7c-2.3,0.8-4.6,1.3-7,1.4c-2.4,0.1-4.8,0.2-7.2,0.2h-1.5h-41V81h46.1c4.6,0,8.9,0.9,12.9,2.6
		c4,1.7,7.5,4.1,10.4,7.1c3,3,5.3,6.5,7,10.5c1.7,4,2.5,8.3,2.5,12.8c0,3.6-0.5,7.1-1.6,10.4c-1.1,3.3-2.6,6.3-4.6,9
		C1163.8,136.1,1161.5,138.5,1158.7,140.5z"/>
	<path class="st1" d="M1316.2,204.6l-54.8-132c-0.4-0.6-0.8-1.1-1.2-1.7c-0.4-0.6-1.2-0.8-2.2-0.8h-0.4h-3.1h-0.4
		c-1,0-1.7,0.3-2.1,0.8c-0.4,0.6-0.8,1.2-1.1,1.9l-52.5,125.6c-0.4,1-0.9,2.1-1.4,3.3s-0.9,2.5-1.4,4c-0.1,0.1-0.1,0.3-0.1,0.4
		c0,0.2,0,0.3,0,0.4c0,1.4,1,2.2,3,2.4h4.9c0.2,0.1,0.5,0.1,0.8,0.1c1.5,0,2.6-0.8,3.3-2.3c1.8-4.5,3.8-9.4,6-14.8
		c2.2-5.4,4.5-11.1,7-17.1h70.8l13.1,31.7c0.7,1.7,1.8,2.6,3.4,2.6c0.1,0,0.2,0,0.4,0c0.1,0,0.2,0,0.4,0h4.9c2-0.2,3-1.1,3-2.6
		c0-0.2,0-0.5-0.1-1C1316.4,205,1316.3,204.7,1316.2,204.6z M1225.5,163.1l30.7-74.6l30.4,74.6H1225.5z"/>
	<path class="st1" d="M1411.6,83.1c-3.9-3.9-8.4-7-13.7-9.2c-5.2-2.3-10.8-3.4-16.8-3.4h-44.2c-1.2,0-2.3,0.4-3.1,1.2
		c-0.8,0.8-1.2,1.8-1.2,3.1v130c0,2.9,1.4,4.3,4.1,4.3h2.3c2.9,0,4.3-1.4,4.3-4.3v-48.1h38c5.9,0,11.5-1.1,16.6-3.4
		c5.2-2.3,9.7-5.4,13.6-9.2c3.9-3.9,7-8.4,9.2-13.7c2.3-5.2,3.4-10.8,3.4-16.8s-1.1-11.6-3.4-16.8
		C1418.6,91.6,1415.5,87,1411.6,83.1z M1411.2,126.4c-1.7,4-4,7.5-6.9,10.5c-2.9,3-6.4,5.3-10.3,7c-4,1.7-8.2,2.6-12.7,2.6h-37.8
		V80.7h37.8c4.5,0,8.7,0.9,12.7,2.6c4,1.7,7.4,4.1,10.3,7c2.9,3,5.2,6.5,6.9,10.5c1.7,4,2.6,8.2,2.6,12.8
		C1413.7,118.1,1412.9,122.4,1411.2,126.4z"/>
	<path class="st1" d="M1551.3,70.4h-4.6c-1,0-1.9,0.3-2.5,0.9c-0.6,0.6-0.9,1.4-0.9,2.4v58.5H1454V73.7c0-1-0.3-1.8-0.9-2.4
		c-0.6-0.6-1.5-0.9-2.5-0.9h-4.8c-1.1,0-1.9,0.3-2.5,0.9c-0.6,0.6-0.9,1.4-0.9,2.4v132c0,2.2,1.2,3.4,3.5,3.4h4.7
		c2.4,0,3.5-1.1,3.5-3.4v-61.8h89.3v61.8c0,2.2,1.1,3.4,3.4,3.4h4.6c2.4,0,3.6-1.1,3.6-3.4v-132c0-1.1-0.3-1.9-1-2.5
		C1553.3,70.7,1552.4,70.4,1551.3,70.4z"/>
	<path class="st1" d="M1592.4,70.4h-4.8c-1.1,0-2,0.3-2.5,0.9c-0.6,0.6-0.9,1.4-0.9,2.4v132c0,2.2,1.1,3.4,3.4,3.4h4.8
		c2.3,0,3.4-1.1,3.4-3.4v-132c0-1.1-0.3-1.9-1-2.5C1594.2,70.7,1593.4,70.4,1592.4,70.4z"/>
	<path class="st1" d="M1732.9,188.3c-1-1.6-2.1-2.3-3.5-2.3c-0.8,0-1.6,0.3-2.3,0.8c-2.6,2.2-5.5,4.1-8.6,5.8
		c-3.1,1.7-6.4,3.2-9.7,4.3c-3.3,1.2-6.6,2.1-10,2.7c-3.4,0.6-6.7,0.9-9.8,0.9c-5.2,0-10.3-0.8-15.3-2.3c-5-1.5-9.7-3.7-14.1-6.4
		c-4.4-2.7-8.5-6-12.2-9.8s-7-7.9-9.7-12.4c-2.7-4.5-4.8-9.3-6.3-14.5c-1.5-5.1-2.3-10.4-2.3-15.7c0-5.3,0.7-10.5,2.1-15.5
		c1.4-5,3.5-9.8,6.1-14.3c2.6-4.5,5.8-8.6,9.4-12.3c3.7-3.7,7.8-7,12.3-9.7c4.5-2.7,9.4-4.8,14.6-6.3c5.2-1.5,10.7-2.2,16.4-2.2
		c6.5,0,12.8,1.1,18.8,3.3c6,2.2,11.7,5.3,17.1,9.2c1.6,1.1,2.8,1.7,3.7,1.7c0.5,0,0.9-0.2,1.4-0.5c0.4-0.3,0.8-0.7,1.3-1.2l2.5-3.2
		c0.5-0.6,0.7-1.3,0.7-2c0-1.1-0.7-2-2-2.9c-6.1-4.8-12.9-8.6-20.4-11.2c-7.5-2.6-15.3-3.9-23.3-3.9c-6.6,0-12.9,0.9-19,2.6
		c-6.1,1.7-11.8,4.1-17.1,7.2c-5.3,3.1-10.1,6.8-14.5,11.1c-4.3,4.3-8,9.1-11.2,14.4c-3.1,5.3-5.5,10.9-7.2,17
		c-1.7,6.1-2.5,12.3-2.5,18.8c0,6.6,0.9,12.9,2.6,19c1.7,6.1,4.1,11.8,7.2,17.1s6.8,10.1,11.2,14.5c4.4,4.3,9.2,8,14.4,11.2
		c5.3,3.1,10.9,5.5,17,7.2c6.1,1.7,12.3,2.5,18.8,2.5c8.3,0,16.2-1.3,23.5-3.9c7.3-2.6,14.1-6.2,20.2-10.9c1.2-0.9,1.9-2.1,1.9-3.5
		c0-0.8-0.2-1.6-0.7-2.3L1732.9,188.3z"/>
	<path class="st1" d="M89.1,68.5H156c0.5,0,1-0.3,1.2-0.8c0.2-0.5,0.1-1.1-0.2-1.5L123.6,29c-0.5-0.6-1.5-0.6-2,0L88.1,66.3
		c-0.4,0.4-0.4,1-0.2,1.5C88.1,68.2,88.6,68.5,89.1,68.5z"/>
	<path class="st0" d="M32.1,189.5h57.3h9h48.3h9h22.7c1,0,1.8-0.8,1.8-1.8v-9c0-0.1,0-0.3-0.1-0.4v-14.6c0-1-0.8-1.8-1.8-1.8h-9
		c-1,0-1.8,0.8-1.8,1.8v13.2h-10v-32.5c0-12.3,10-22.4,22.4-22.4s22.4,10,22.4,22.4v32.5h-9.6c-1,0-1.8,0.8-1.8,1.8v9
		c0,1,0.8,1.8,1.8,1.8h20.4c1,0,1.8-0.8,1.8-1.8v-43.3c0-19.3-15.7-35-35-35s-35,15.7-35,35v32.5h-44.7v-32.5
		c0-12.3,10-22.4,22.4-22.4c5.1,0,10.1,1.8,14.1,5c0.5,0.4,1.3,0.5,1.9,0.2c0.6-0.3,1-0.9,1-1.6V115c0-0.7-0.4-1.3-1-1.6
		c-5-2.6-10.4-3.9-16.1-3.9c-11.9,0-22.3,5.9-28.7,15c-6.3-9-16.8-15-28.7-15c-19.3,0-35,15.7-35,35v43.3
		C30.3,188.7,31.1,189.5,32.1,189.5z M42.9,144.4c0-12.3,10-22.4,22.4-22.4c12.3,0,22.4,10,22.4,22.4v32.5H42.9V144.4z"/>
	<path class="st0" d="M213.1,197.8h-181c-1,0-1.8,0.8-1.8,1.8v9c0,1,0.8,1.8,1.8,1.8h181c1,0,1.8-0.8,1.8-1.8v-9
		C214.9,198.6,214.1,197.8,213.1,197.8z"/>
</g>
</svg>
