<?xml version="1.0" encoding="utf-8"?>
<!-- Generator: Adobe Illustrator 24.2.3, SVG Export Plug-In . SVG Version: 6.00 Build 0)  -->
<svg version="1.1" id="Réteg_1" xmlns="http://www.w3.org/2000/svg" xmlns:xlink="http://www.w3.org/1999/xlink" x="0px" y="0px"
	 viewBox="0 0 141.7 141.7" style="enable-background:new 0 0 141.7 141.7;" xml:space="preserve">
<style type="text/css">
	.st0{fill:#0B1521;}
</style>
<g>
	<path class="st0" d="M70.9,5.3C34.7,5.3,5.3,34.7,5.3,70.9s29.4,65.6,65.6,65.6s65.6-29.4,65.6-65.6C136.4,34.7,107.1,5.3,70.9,5.3
		z M106.3,90.1c0,3.1-2.5,5.7-5.7,5.7H41.1c-3.1,0-5.7-2.5-5.7-5.7V51.7c0-3.1,2.5-5.7,5.7-5.7h59.5c3.1,0,5.7,2.5,5.7,5.7
		C106.3,51.7,106.3,90.1,106.3,90.1z"/>
	<path class="st0" d="M71.6,71.9l21.6-18.5H48.3l21.8,18.5C70.6,72.2,71.1,72.2,71.6,71.9z"/>
	<path class="st0" d="M70.8,79.5c-1.9,0-3.9-0.7-5.4-2L42.8,58.2v30.2H99V58L76.3,77.4C74.7,78.8,72.8,79.5,70.8,79.5z"/>
</g>
</svg>
