<?xml version="1.0" encoding="utf-8"?>
<!-- Generator: Adobe Illustrator 24.2.3, SVG Export Plug-In . SVG Version: 6.00 Build 0)  -->
<svg version="1.1" id="Réteg_1" xmlns="http://www.w3.org/2000/svg" xmlns:xlink="http://www.w3.org/1999/xlink" x="0px" y="0px"
	 viewBox="0 0 141.7 141.7" style="enable-background:new 0 0 141.7 141.7;" xml:space="preserve">
<style type="text/css">
	.st0{fill:#0B1521;}
</style>
<g>
	<path class="st0" d="M70.9,5.3C34.7,5.3,5.3,34.7,5.3,70.9s29.4,65.6,65.6,65.6s65.6-29.4,65.6-65.6S107.1,5.3,70.9,5.3z M90.6,97
		c-8.6,6.1-18.1,7.7-28.4,5.2c-1.1-0.3-2.1-0.2-3.1,0.3c-2.1,1-4.2,1.9-6.3,2.9c-2.3,1-3.3,0.5-3.6-2c-0.1-1.1,0-2.3,0-3.4
		c0-0.3,0-0.7,0-1c0.3-2.2-0.5-3.9-2.1-5.5c-7-7-10.2-15.5-9.2-25.4c1.1-10.8,6.8-18.8,16-24.2c14-8.2,32.5-4.9,42.8,7.6
		C108.4,65.7,105.6,86.5,90.6,97z"/>
	<path class="st0" d="M88.6,61.7c-0.3,0.2-0.6,0.4-0.9,0.7c-3,2.3-6,4.6-9,6.9c-1.5,1.1-1.9,1.1-3.4,0.1c-2.3-1.7-4.5-3.4-6.8-5
		c-3-2.2-6-1.7-8.1,1.5c-2.8,4.4-5.7,8.8-8.5,13.2c-0.4,0.6-0.8,1.3-1.2,1.9c-0.4,0.8-0.6,1.6,0.2,2.3c0.7,0.7,1.6,0.5,2.3,0
		c0.6-0.3,1.1-0.7,1.6-1.1c2.8-2.2,5.6-4.4,8.3-6.5c1.2-1,1.9-1,3.1,0c2.6,1.8,5.1,3.7,7.7,5.5c1,0.7,2,1.2,3.2,1.2
		c1.7,0,2.9-0.7,4-2.6c1.7-2.8,3.4-5.6,5.1-8.4c1.5-2.4,2.9-4.8,4.4-7.2c0.5-0.8,0.6-1.5-0.1-2.2C90.1,61.2,89.3,61.2,88.6,61.7z"/>
</g>
</svg>
