<?xml version="1.0" encoding="utf-8"?>
<!-- Generator: Adobe Illustrator 24.2.3, SVG Export Plug-In . SVG Version: 6.00 Build 0)  -->
<svg version="1.1" id="Layer_1" xmlns="http://www.w3.org/2000/svg" xmlns:xlink="http://www.w3.org/1999/xlink" x="0px" y="0px"
	 viewBox="0 0 263 263" style="enable-background:new 0 0 263 263;" xml:space="preserve">
<style type="text/css">
	.st0{fill:#0B1521;}
</style>
<g>
	<path class="st0" d="M127.6,56.9l-1.2,61.5l-33.9,13.9c-3.4,1.4-5,5.2-3.6,8.6c1,2.6,3.5,4.1,6.1,4.1c0.8,0,1.7-0.2,2.5-0.5
		l37.9-15.5c2.4-1,4-3.3,4.1-6l1.3-65.8c0.1-3.6-2.8-6.6-6.5-6.7C130.6,50.3,127.6,53.2,127.6,56.9z"/>
	<ellipse class="st0" cx="211" cy="142.9" rx="30.5" ry="15.7"/>
	<path class="st0" d="M44.9,122.8c0-48.5,39.5-88,88-88c48.1,0,87.3,38.8,88,86.8c5.8,1,11,2.8,15.3,5.3c0.1-1.3,0.1-2.7,0.1-4.1
		c0-57-46.4-103.4-103.4-103.4S29.5,65.8,29.5,122.8c0,48.3,33.2,88.9,78,100.2v-16C71.3,196.2,44.9,162.5,44.9,122.8z"/>
	<path class="st0" d="M240.7,153.9c-0.4,0.8-0.9,1.6-1.5,2.4c-0.8,1-1.8,1.9-2.9,2.8c-2.3,1.8-5.4,3.3-8.9,4.5
		c-4.7,1.5-10.3,2.4-16.3,2.4s-11.6-0.9-16.3-2.4c-3.5-1.2-6.6-2.7-8.9-4.5c-1.1-0.9-2.1-1.8-2.9-2.8c-0.6-0.8-1.1-1.6-1.5-2.4
		c-0.5-1.1-0.8-2.3-0.8-3.6v12c0,1.2,0.3,2.4,0.8,3.6c0.8,1.9,2.3,3.7,4.4,5.2c2.3,1.8,5.4,3.3,8.9,4.5c4.7,1.5,10.3,2.4,16.3,2.4
		s11.6-0.9,16.3-2.4c3.5-1.2,6.6-2.7,8.9-4.5c2.1-1.6,3.6-3.3,4.4-5.2c0.5-1.1,0.8-2.3,0.8-3.6v-12
		C241.5,151.5,241.3,152.7,240.7,153.9z"/>
	<path class="st0" d="M239.2,174.7c-0.8,1-1.8,1.9-2.9,2.8c-2.3,1.8-5.4,3.3-8.9,4.5c-4.7,1.5-10.3,2.4-16.3,2.4s-11.6-0.9-16.3-2.4
		c-3.5-1.2-6.6-2.7-8.9-4.5c-1.1-0.9-2.1-1.8-2.9-2.8c-0.6-0.8-1.1-1.6-1.5-2.4c-0.5-1.1-0.8-2.3-0.8-3.6v12c0,1.2,0.3,2.4,0.8,3.6
		c0.8,1.9,2.3,3.7,4.4,5.2c2.3,1.8,5.4,3.3,8.9,4.5c4.7,1.5,10.3,2.4,16.3,2.4s11.6-0.9,16.3-2.4c3.5-1.2,6.6-2.7,8.9-4.5
		c2.1-1.6,3.6-3.3,4.4-5.2c0.5-1.1,0.8-2.3,0.8-3.6v-12c0,1.2-0.3,2.4-0.8,3.6C240.4,173.1,239.8,173.9,239.2,174.7z"/>
	<path class="st0" d="M239.2,193.1c-0.8,1-1.8,1.9-2.9,2.8c-2.3,1.8-5.4,3.3-8.9,4.5c-4.7,1.5-10.3,2.4-16.3,2.4s-11.6-0.9-16.3-2.4
		c-3.5-1.2-6.6-2.7-8.9-4.5c-1.1-0.9-2.1-1.8-2.9-2.8c-0.6-0.8-1.1-1.6-1.5-2.4c-0.5-1.1-0.8-2.3-0.8-3.6v12c0,1.2,0.3,2.4,0.8,3.6
		c0.8,1.9,2.3,3.7,4.4,5.2c2.3,1.8,5.4,3.3,8.9,4.5c4.7,1.5,10.3,2.4,16.3,2.4s11.6-0.9,16.3-2.4c3.5-1.2,6.6-2.7,8.9-4.5
		c2.1-1.6,3.6-3.3,4.4-5.2c0.5-1.1,0.8-2.3,0.8-3.6v-12c0,1.2-0.3,2.4-0.8,3.6C240.4,191.5,239.8,192.3,239.2,193.1z"/>
	<path class="st0" d="M239.2,211.5c-0.8,1-1.8,1.9-2.9,2.8c-2.3,1.8-5.4,3.3-8.9,4.5c-4.7,1.5-10.3,2.4-16.3,2.4s-11.6-0.9-16.3-2.4
		c-3.5-1.2-6.6-2.7-8.9-4.5c-1.1-0.9-2.1-1.8-2.9-2.8c-0.6-0.8-1.1-1.6-1.5-2.4c-0.5-1.1-0.8-2.3-0.8-3.6v12c0,1.2,0.3,2.4,0.8,3.6
		c0.8,1.9,2.3,3.7,4.4,5.2c2.3,1.8,5.4,3.3,8.9,4.5c4.7,1.5,10.3,2.4,16.3,2.4s11.6-0.9,16.3-2.4c3.5-1.2,6.6-2.7,8.9-4.5
		c2.1-1.6,3.6-3.3,4.4-5.2c0.5-1.1,0.8-2.3,0.8-3.6v-12c0,1.2-0.3,2.4-0.8,3.6C240.4,209.9,239.8,210.7,239.2,211.5z"/>
	<path class="st0" d="M118.4,198.7c2.3,1.8,5.4,3.3,8.9,4.5c4.7,1.5,10.3,2.4,16.3,2.4s11.6-0.9,16.3-2.4c3.5-1.2,6.6-2.7,8.9-4.5
		c2.1-1.6,3.6-3.3,4.4-5.2c0.5-1.1,0.8-2.3,0.8-3.6c0-8.7-13.6-15.7-30.5-15.7c-16.8,0-30.5,7-30.5,15.7c0,1.2,0.3,2.4,0.8,3.6
		C114.9,195.4,116.4,197.1,118.4,198.7z"/>
	<path class="st0" d="M171.9,203.5c-0.8,1-1.8,1.9-2.9,2.8c-2.3,1.8-5.4,3.3-8.9,4.5c-4.7,1.5-10.3,2.4-16.3,2.4s-11.6-0.9-16.3-2.4
		c-3.5-1.2-6.6-2.7-8.9-4.5c-1.1-0.9-2.1-1.8-2.9-2.8c-0.6-0.8-1.1-1.6-1.5-2.4c-0.5-1.1-0.8-2.3-0.8-3.6v12c0,1.2,0.3,2.4,0.8,3.6
		c0.8,1.9,2.3,3.7,4.4,5.2c2.3,1.8,5.4,3.3,8.9,4.5c4.7,1.5,10.3,2.4,16.3,2.4s11.6-0.9,16.3-2.4c3.5-1.2,6.6-2.7,8.9-4.5
		c2.1-1.6,3.6-3.3,4.4-5.2c0.5-1.1,0.8-2.3,0.8-3.6v-12c0,1.2-0.3,2.4-0.8,3.6C173,201.9,172.5,202.7,171.9,203.5z"/>
	<path class="st0" d="M171.9,221.9c-0.8,1-1.8,1.9-2.9,2.8c-2.3,1.8-5.4,3.3-8.9,4.5c-4.7,1.5-10.3,2.4-16.3,2.4s-11.6-0.9-16.3-2.4
		c-3.5-1.2-6.6-2.7-8.9-4.5c-1.1-0.9-2.1-1.8-2.9-2.8c-0.6-0.8-1.1-1.6-1.5-2.4c-0.5-1.1-0.8-2.3-0.8-3.6v12c0,1.2,0.3,2.4,0.8,3.6
		c0.8,1.9,2.3,3.7,4.4,5.2c2.3,1.8,5.4,3.3,8.9,4.5c4.7,1.5,10.3,2.4,16.3,2.4s11.6-0.9,16.3-2.4c3.5-1.2,6.6-2.7,8.9-4.5
		c2.1-1.6,3.6-3.3,4.4-5.2c0.5-1.1,0.8-2.3,0.8-3.6v-12c0,1.2-0.3,2.4-0.8,3.6C173,220.3,172.5,221.1,171.9,221.9z"/>
</g>
</svg>
