<?xml version="1.0" encoding="utf-8"?>
<!-- Generator: Adobe Illustrator 24.2.3, SVG Export Plug-In . SVG Version: 6.00 Build 0)  -->
<svg version="1.1" id="Layer_1" xmlns="http://www.w3.org/2000/svg" xmlns:xlink="http://www.w3.org/1999/xlink" x="0px" y="0px"
	 viewBox="0 0 170.1 170.1" style="enable-background:new 0 0 170.1 170.1;" xml:space="preserve">
<style type="text/css">
	.st0{fill:#0B1521;}
</style>
<path class="st0" d="M135.9,68.5h-3.3v15.6h-7V56.2c0-1-0.4-1.9-1.1-2.6l-22.4-22.4c-0.7-0.7-1.6-1.1-2.6-1.1H48.2
	c-2,0-3.6,1.6-3.6,3.6V84h-7V68.5h-3.3C27.5,68.5,22,74,22,80.8v47c0,6.8,5.5,12.3,12.3,12.3h101.6c6.8,0,12.3-5.5,12.3-12.3v-47
	C148.1,74,142.6,68.5,135.9,68.5z M51.8,37.4H98l0.9,0.9v16.6c0,1.4,1.2,2.6,2.6,2.6h16.6l0.2,0.2v26.4H51.8V37.4z M28.6,100.4v-8.2
	h15.3v8.2H28.6z M130.8,123.6H37.3v-7.4h93.4v7.4H130.8z"/>
</svg>
