<?xml version="1.0" encoding="utf-8"?>
<!-- Generator: Adobe Illustrator 24.2.3, SVG Export Plug-In . SVG Version: 6.00 Build 0)  -->
<svg version="1.1" id="Réteg_1" xmlns="http://www.w3.org/2000/svg" xmlns:xlink="http://www.w3.org/1999/xlink" x="0px" y="0px"
	 viewBox="0 0 141.7 141.7" style="enable-background:new 0 0 141.7 141.7;" xml:space="preserve">
<style type="text/css">
	.st0{fill:#0B1521;}
</style>
<g>
	<path class="st0" d="M104.1,114.6l14.3,3.5l-3.5-15.2C114.8,103,104.7,107.8,104.1,114.6z"/>
	<path class="st0" d="M64.8,96c-1.1-1.1-2.8-1-3.8,0l-14.1,14.3c-1.1,1.1-2.8,1.1-3.8,0l-12-11.6c-1.1-1.1-1.1-2.8,0-3.9l4.6-4.6
		l5.4,5.3c0.8,0.8,2,0.8,2.8,0l1.1-1.1c0.8-0.8,0.8-2,0-2.8l-5.4-5.3l3.9-4l5.5,5.3c0.8,0.8,2,0.8,2.8,0l1.1-1.1
		c0.8-0.8,0.8-2,0-2.8l-9-8.8c-1.1-1.1-2.8-1-3.8,0l-19.8,20c-1.1,1.1-1,2.8,0,3.9l22.9,22.5c1.1,1,2.8,1,3.8,0l19.5-19.7
		c1.1-1.1,1-2.8,0-3.8L64.8,96z"/>
	<path class="st0" d="M121.6,43.4L99.1,20.5c-1.1-1.1-2.8-1.1-3.9,0l-20,19.8c-1.1,1.1-1.1,2.8,0,3.8l8.8,8.6c0.8,0.8,2,0.8,2.8,0
		l1.1-1.1c0.8-0.8,0.8-2,0-2.8l-5.2-5l4.8-4.7l5.5,5.3c0.8,0.8,2,0.8,2.8,0l1.1-1.1c0.8-0.8,0.8-2,0-2.8l-5.4-5.3l3.7-3.7
		c1.1-1.1,2.8-1,3.9,0l11.7,11.9c1,1.1,1,2.8,0,3.8L96.4,61.3c-1.1,1.1-1.1,2.8,0,3.8l1.6,1.6c1.1,1.1,2.8,1.1,3.8,0l19.7-19.5
		C122.6,46.2,122.6,44.5,121.6,43.4z"/>
	<path class="st0" d="M21.7,41.7L91.1,110c-0.7-7.2,6.2-9.2,8.7-9.7L27.5,27.9C23.1,32.9,21.7,41.7,21.7,41.7z"/>
	<path class="st0" d="M111.1,90.2l-68.3-68c-1.5-0.2-8.3,0-13.8,4.4l0,0l71.9,71.9C101.9,89.7,111.1,90.2,111.1,90.2z"/>
</g>
</svg>
