<?xml version="1.0" encoding="utf-8"?>
<!-- Generator: Adobe Illustrator 24.2.3, SVG Export Plug-In . SVG Version: 6.00 Build 0)  -->
<svg version="1.1" id="Réteg_1" xmlns="http://www.w3.org/2000/svg" xmlns:xlink="http://www.w3.org/1999/xlink" x="0px" y="0px"
	 viewBox="0 0 141.7 141.7" style="enable-background:new 0 0 141.7 141.7;" xml:space="preserve">
<style type="text/css">
	.st0{fill:#0B1521;}
</style>
<g>
	<path class="st0" d="M99,56.2c-3.8-7.1-8.3-13.7-13.3-20C82.3,32,78.5,28,74.1,24.6c-4.1-3.2-8.5-6-13.9-6.7
		c-4.2-0.6-8.3,1-10.7,5.2c-1.9,3.4-2.3,7.2-2,11c0.7,9.7,4.2,18.6,8.6,27.1c3,5.9,6.5,11.6,10.4,17C72,85.8,78.1,92.7,86,98
		c3.1,2,6.3,3.6,10,4c3.3,0.4,6.3-0.2,8.8-2.6c3.6-3.5,3.9-8,4-12.6c-0.1-3.8-0.9-7.4-1.8-11C105.2,68.9,102.3,62.5,99,56.2z
		 M98,86.5c-0.4,3.5-1.8,4.4-5.1,3.1c-3.2-1.3-5.9-3.4-8.5-5.8c-5-4.6-9-9.9-12.9-15.4c-2.8-4-5-8.4-7.2-12.8
		c-2.3-4.8-4.2-9.8-5.4-15c-0.7-2.9-1-5.8-0.3-8.8c0.5-1.8,1.3-2.4,3.1-2c2.6,0.6,4.9,1.9,7,3.6c11.8,9.7,19.7,22.2,25.6,36
		c2.1,4.9,3.8,10.1,3.7,15.6C98,85.5,98.1,86,98,86.5z"/>
	<path class="st0" d="M80.8,99.5c-3.1-2-5.9-4.6-8.5-7.2c-1-0.9-1.9-1.3-3.2-1.4C63.4,90.6,57.7,91,52.2,93c-1,0.3-1.8,0.2-2.7-0.4
		c-2.1-1.3-4-2.9-5.7-4.7c-4.3-4.7-6.9-10.1-7.7-16.5c-0.1-1.1-0.3-2.3,0.7-3.2c4.1-3.8,6.9-8.4,9.1-13.5c0.4-1,1.2-2,0.8-3.3
		c-1.6-4.7-2.8-9.5-3.4-14.4c-1.1,3.5-1.9,7-3.2,10.4c-2.3,6.2-5.9,11.4-10.9,15.8c-4.7,4.2-10.1,7.3-15.4,10.4c-4.8,2.8-6.4,7-6,12
		c1,11.4,6.6,20.1,16.4,25.9c4,2.3,8.3,2.8,12.4-0.2c1.6-1.2,3.5-2.1,5.2-3.2c4.5-2.9,9.2-5.6,14.4-7.3c7.3-2.3,14.7-2.5,22.1-0.6
		c1,0.2,2.1,0.5,3.1,0.2C81.5,100,81.1,99.8,80.8,99.5z"/>
	<path class="st0" d="M70.2,115.3c-2.2,0.3-4.1,0.1-6-1.2c-1.6-1.1-3.2-2.3-4.9-3.4c-1.9-1.2-3.7-2.8-6.3-2.7
		c-0.8-0.1-1.6,0.1-2.4,0.6c-3.4,2.1-6.7,4.2-10.1,6.2c-1.2,0.7-0.9,1.1,0,1.8c1.8,1.3,3.4,2.8,4.8,4.5c3.3,3.7,6.3,7.6,10.2,10.7
		c3.6,2.8,7.3,3.9,11.3,0.8c2-1.6,4.3-2.8,6.4-4.3c1.9-1.4,4.1-2.4,5.6-4.3c1.3-1.7,1.4-2.9,0.2-4.6C76.9,116.1,74,114.7,70.2,115.3
		z"/>
	<path class="st0" d="M133.5,63.4c-0.9-2.4-2.3-3.6-4.8-2.9c-4.7,1.4-9.4,2.8-14.2,4.3c-1.7,0.5-2.8,2.2-2.6,3.7
		c0.3,1.8,1.8,3,3.9,3c0.3,0,0.8-0.1,1.3-0.2c4.1-0.7,8.2-1.5,12.3-2.2C133,68.6,134.6,66.6,133.5,63.4z"/>
	<path class="st0" d="M85.6,25.8c1.1,1,3,0.9,4.3-0.5c3.5-3.6,6.9-7.2,10.3-10.8c0.7-0.7,1.3-1.5,1.1-2.5c0-1.6-0.2-2-2.4-3.7
		C97.3,7,95.4,7,94.1,8.6c-3.2,4.1-6.4,8.3-9.5,12.6C83.5,22.8,84,24.5,85.6,25.8z"/>
	<path class="st0" d="M108.1,45.5c4.3-2.3,8.5-4.6,12.7-6.9c1.2-0.7,2-1.7,2-3.4c-0.3-1.7-1.1-3.3-2.9-4.3c-1.5-0.8-2.8-0.2-4.1,0.7
		c-3.8,2.7-7.5,5.3-11.3,7.9c-1.9,1.3-2.5,3.3-1.5,5C104.1,46.2,106.1,46.6,108.1,45.5z"/>
	<path class="st0" d="M69.6,52.8c-0.9,0.3-1.2,0.7-0.7,1.7c1.2,2.3,2.6,4.5,3.9,6.7c1.9,3.2,3.9,6.4,6,9.4c0.6,0.8,1.2,1.2,2,0.2
		c1.5-1.8,2.7-3.8,2.5-5.8c0-3.6-1.4-6.4-4.4-9.9C76.7,52.8,72.5,51.7,69.6,52.8z"/>
</g>
</svg>
