<?xml version="1.0" encoding="utf-8"?>
<!-- Generator: Adobe Illustrator 24.2.3, SVG Export Plug-In . SVG Version: 6.00 Build 0)  -->
<svg version="1.1" id="Réteg_1" xmlns="http://www.w3.org/2000/svg" xmlns:xlink="http://www.w3.org/1999/xlink" x="0px" y="0px"
	 viewBox="0 0 141.7 141.7" style="enable-background:new 0 0 141.7 141.7;" xml:space="preserve">
<style type="text/css">
	.st0{fill:#0B1521;}
</style>
<g>
	<path class="st0" d="M59.2,98.6c-1.4-1.2-3.2-1.6-4.8-1.1c1.4-2.1,1-5-0.9-6.7c-1.1-1-2.5-1.4-3.8-1.3c0.4-1.8-0.1-3.7-1.5-5
		c-2.1-2-5.4-1.9-7.4,0.2l-1.8,2c0.6-1.8,0.1-3.9-1.3-5.3c-2.1-2-5.4-1.9-7.4,0.1L25.9,86c-2,2.1-1.9,5.4,0.1,7.4
		c1,1,2.3,1.5,3.6,1.5c1,0,1.9-0.3,2.8-0.8c-0.9,2-0.6,4.4,1.1,6c1,0.9,2.3,1.4,3.6,1.4c0.7,0,1.4-0.2,2.1-0.4
		c0,1.4,0.6,2.8,1.7,3.8c1,0.9,2.2,1.3,3.5,1.3c1.1,0,2.1-0.3,3-1c-0.3,1.7,0.3,3.4,1.7,4.7c1,0.9,2.2,1.3,3.5,1.3
		c1.4,0,2.8-0.6,3.9-1.7l3.1-3.5C61.5,103.8,61.3,100.5,59.2,98.6z"/>
	<path class="st0" d="M110.8,82.8c-0.6-1-1.9-1.2-2.9-0.6s-1.2,1.9-0.6,2.9c0,0,1.6,2.7,0.3,4.6c-0.4,0.6-0.9,0.9-1.8,1
		c-1.8,0.2-4.3-0.8-6.6-2.6c-0.8-0.9-1.7-1.7-2.8-2.6c-3.7-3.1-21.9-18.1-22.1-18.2c-0.9-0.7-2.2-0.6-2.9,0.3
		c-0.7,0.9-0.6,2.2,0.3,2.9c0.2,0.2,18.3,15.1,22,18.2c0.4,0.3,0.7,0.6,1,0.9c0.1,0.2,0.2,0.4,0.4,0.6c0.4,0.4,0.8,0.7,1.2,1
		c4.1,4.7,2.4,7.5,2,8c-0.9,1.1-1.7,1.3-2.3,1.3c-3,0.1-7-3.7-8.1-5c-0.1-0.1-0.2-0.2-0.2-0.2c-0.1-0.1-0.2-0.2-0.3-0.3
		c-4.3-4.3-18.1-16.3-18.7-16.8c-0.9-0.8-2.2-0.7-2.9,0.2c-0.8,0.9-0.7,2.2,0.2,2.9c0.1,0.1,14.3,12.4,18.5,16.6
		c1.9,1.9,3,3.9,2.9,5.5c0,1.1-0.6,1.8-1.1,2.2c-1.2,1-3.6,0.4-4.4-0.1c-1-0.7-3.8-3.1-4.9-4.1c-0.4-0.5-0.9-1.1-1.5-1.6
		C71.8,96.6,62.8,88,62.7,87.9c-0.7-0.9-2-0.9-2.8-0.1s-0.8,2.1,0.1,2.9c0.4,0.4,9.1,8.8,12.9,12c1.2,1.1,1.9,2.3,2,3.7
		c0.1,1.3-0.4,2.3-0.8,2.7c-2.5,2.8-8.8-2.2-8.9-2.3c-0.9-0.7-2.2-0.6-2.9,0.3s-0.6,2.2,0.3,2.9c2.3,1.9,6.1,4.1,9.6,4.1
		c1.9,0,3.7-0.6,5.1-2.3c0.9-1,1.5-2.3,1.7-3.7c0.3,0.2,0.5,0.4,0.8,0.6c1.1,0.8,3,1.3,4.8,1.3c1.6,0,3.3-0.4,4.6-1.5
		c1.6-1.3,2.5-3.2,2.6-5.2l0,0c1.4,0.7,2.9,1.2,4.5,1.2c0.1,0,0.2,0,0.2,0c2.1-0.1,4-1.1,5.4-2.9c0.6-0.7,2.2-3.3,1.3-7.1
		c0.8,0.2,1.6,0.3,2.3,0.3c0.3,0,0.6,0,0.9,0c2.1-0.2,3.7-1.2,4.8-2.8C114,87.8,111,83,110.8,82.8z"/>
	<path class="st0" d="M78.6,37.2l7.8,2.5c0,0,3.9,1.4,8.5-0.5s9-5,13.4-2.6c6.9,3.8,14.2,12.8,15.9,20.7c1.3,6.2-9.5,18.1-12.4,21.1
		s-7.5,2-14.6-3.6c-7-5.6-22.4-18.4-23.2-19.1c-0.8-0.8-4.6-6-7.3-5.1c-2.7,0.9-11.5,4.8-17.1,2.2s-8.1-5.2-6.1-7.5
		s15.2-7.7,15.2-7.7S70.8,32.5,78.6,37.2z"/>
	<path class="st0" d="M108.3,30.5l4.2-2.3c0,0,2.5-2,6.4,0.5s15.2,14.7,16.3,18.7c0,0,1.3,3.8-1.3,6s-5.3,5.3-6.1,1.7
		c-0.8-3.6-4.9-12.1-9.1-16s-7.8-6-9.2-6.2C107.9,32.6,105.4,32.2,108.3,30.5z"/>
	<g>
		<path class="st0" d="M25.8,81.4c-0.8,0.9-2.1,1-3,0.2L11.1,71.5C8.2,69,3.8,62.3,8,53.6c4.5-9.2,13.8-17,14.2-17.3
			c0.1-0.1,0.2-0.1,0.2-0.2c0.3-0.2,7.6-5,17.9,1.4c1,0.6,1.3,2,0.6,3l-1.2,1.6c-0.7,0.9-1.9,1.1-2.8,0.5c-5.5-3.4-9.3-2.2-10.5-1.6
			c-0.2,0.1-0.3,0.2-0.5,0.3c-1.7,1.5-8.8,7.9-12.2,14.9c-3.2,6.4,1.3,10.1,1.5,10.2l0.1,0.1L27,76.7c0.9,0.8,1,2.1,0.2,3L25.8,81.4
			z"/>
	</g>
</g>
</svg>
